<svg version="1.2" xmlns="http://www.w3.org/2000/svg" viewBox="0 0 197 41" width="197" height="41">
	<title>logo-svg</title>
	<style>
		tspan { white-space:pre } 
		.s0 { fill: #3a72ec } 
		.t1 { font-size: 24px;fill: #3a72ec;font-weight: 400;font-family: "DejaVuSans", "DejaVu Sans" } 
		.s2 { fill: #340e0e } 
	</style>
	<path id="Layer" fill-rule="evenodd" class="s0" d="m0.7 20.1c0-11 8.9-20 20-20 11 0 20 9 20 20 0 11.1-9 20-20 20-11.1 0-20-8.9-20-20zm26.2-10.6c0.3-1.1-0.7-1.8-1.7-1.1l-13.3 9.5c-1.1 0.8-0.9 2.2 0.2 2.2h3.5 6.9l-5.6 2-2.5 8.7c-0.3 1.1 0.8 1.7 1.7 1.1l13.4-9.6c1-0.7 0.9-2.2-0.3-2.2h-5.3z"/>
	<text id="Desk" style="transform: matrix(1,0,0,1,137,29)" >
		<tspan x="0" y="0" class="t1">D</tspan><tspan  y="0" class="t1">e</tspan><tspan  y="0" class="t1">s</tspan><tspan  y="0" class="t1">k</tspan><tspan  y="0" class="t1">
</tspan>
	</text>
	<path id="Layer" fill-rule="evenodd" class="s2" d="m50.5 11.5h4.6l4.8 11.8h0.2l4.8-11.8h4.5v17.5h-3.5v-11.4h-0.2l-4.5 11.3h-2.4l-4.6-11.3h-0.1v11.4h-3.6zm27.8 17.7q-2 0-3.4-0.8-1.5-0.9-2.2-2.4-0.8-1.5-0.8-3.5 0-2.1 0.8-3.6 0.7-1.5 2.2-2.4 1.4-0.8 3.4-0.8 2 0 3.5 0.8 1.4 0.9 2.2 2.4 0.8 1.5 0.8 3.6 0 2-0.8 3.5-0.8 1.5-2.2 2.4-1.5 0.8-3.5 0.8zm0-2.8q0.9 0 1.6-0.5 0.6-0.5 0.9-1.4 0.3-0.9 0.3-2.1 0-1.1-0.3-2-0.3-0.9-0.9-1.4-0.7-0.5-1.6-0.5-0.9 0-1.5 0.5-0.6 0.5-0.9 1.4-0.3 0.9-0.3 2 0 1.2 0.3 2.1 0.3 0.9 0.9 1.4 0.6 0.5 1.5 0.5zm13.7 2.8q-1.5 0-2.7-0.8-1.3-0.8-2-2.3-0.7-1.5-0.7-3.7 0-2.2 0.8-3.7 0.7-1.5 1.9-2.3 1.2-0.7 2.6-0.7 1.1 0 1.9 0.4 0.7 0.3 1.2 0.9 0.4 0.5 0.7 1.1h0.1v-6.6h3.6v17.5h-3.6v-2.1h-0.1q-0.3 0.5-0.8 1-0.4 0.6-1.2 0.9-0.7 0.4-1.7 0.4zm1.1-2.9q0.9 0 1.5-0.5 0.6-0.5 0.9-1.4 0.4-0.8 0.4-2 0-1.2-0.4-2-0.3-0.9-0.9-1.3-0.6-0.5-1.5-0.5-0.9 0-1.5 0.5-0.6 0.5-0.9 1.3-0.3 0.9-0.3 2 0 1.2 0.3 2 0.3 0.9 0.9 1.4 0.6 0.5 1.5 0.5zm9.3 2.7v-13.1h3.6v13.1zm1.8-14.8q-0.8 0-1.3-0.6-0.6-0.5-0.6-1.3 0-0.7 0.6-1.3 0.5-0.5 1.3-0.5 0.9 0 1.4 0.5 0.6 0.6 0.6 1.3 0 0.8-0.6 1.3-0.5 0.6-1.4 0.6zm11.8 1.7v2.7h-2.6v10.4h-3.6v-10.4h-1.9v-2.7h1.9v-1q0-1.4 0.5-2.3 0.6-1 1.6-1.4 0.9-0.5 2.2-0.5 0.8 0 1.5 0.1 0.7 0.1 1 0.2l-0.6 2.8q-0.2-0.1-0.5-0.2-0.4 0-0.7 0-0.8 0-1.1 0.4-0.3 0.3-0.3 1v0.9zm2.2 13.1v-13.1h3.6v13.1zm1.9-14.8q-0.8 0-1.4-0.6-0.6-0.5-0.6-1.3 0-0.7 0.6-1.3 0.6-0.5 1.4-0.5 0.8 0 1.3 0.5 0.6 0.6 0.6 1.3 0 0.8-0.6 1.3-0.5 0.6-1.3 0.6zm10.6 15q-2 0-3.4-0.8-1.5-0.9-2.3-2.4-0.8-1.5-0.8-3.5 0-2.1 0.8-3.6 0.8-1.5 2.3-2.4 1.4-0.8 3.4-0.8 2 0 3.4 0.8 1.5 0.9 2.2 2.4 0.8 1.5 0.8 3.6 0 2-0.8 3.5-0.7 1.5-2.2 2.4-1.4 0.8-3.4 0.8zm0-2.8q0.9 0 1.5-0.5 0.6-0.5 0.9-1.4 0.3-0.9 0.3-2.1 0-1.1-0.3-2-0.3-0.9-0.9-1.4-0.6-0.5-1.5-0.5-0.9 0-1.5 0.5-0.6 0.5-1 1.4-0.3 0.9-0.3 2 0 1.2 0.3 2.1 0.4 0.9 1 1.4 0.6 0.5 1.5 0.5z"/>
</svg>